<svg xmlns="http://www.w3.org/2000/svg" viewBox="0 0 45.27 59.85"><defs><style>.cls-1{fill:#6f5e68;}</style></defs><title>Asset 1</title><g id="Layer_2" data-name="Layer 2"><g id="icons"><path class="cls-1" d="M33.13,9.28a.66.66,0,0,1,.59-.53l10.63-.82a1,1,0,1,0-.15-2l-11.66.9A1.32,1.32,0,0,0,31.35,7.9l-.83,4.46a.61.61,0,0,1-.59.49H16.44a.69.69,0,0,1-.65-.47L13.92,6.54a.51.51,0,0,1,.32-.64L25.76,2.1a.22.22,0,0,0,0-.43L11.77,0a2.14,2.14,0,0,0-1.72.58l-10,9.57a.23.23,0,0,0,.23.38L11.39,6.85a.49.49,0,0,1,.63.31l1.67,5.23a.34.34,0,0,1-.33.46,1,1,0,0,0-1,1v3c0,11.12,4.12,27.64,10.51,29.87a.68.68,0,0,1,.46.63l0,10a.5.5,0,0,1-.5.5h-9.5a1,1,0,0,0,0,2h22a1,1,0,0,0,0-2h-9.5a.5.5,0,0,1-.5-.5v-10a.68.68,0,0,1,.46-.63C32.2,44.49,36.38,28,36.38,16.85v-3a1,1,0,0,0-1-1H33a.41.41,0,0,1-.41-.49ZM7.54,6a.11.11,0,0,1-.11-.19l3.68-3.48A1,1,0,0,1,12,2.05l5.07.6a.12.12,0,0,1,0,.22Zm26.34,8.84a.5.5,0,0,1,.5.5v1.5c0,13.35-5.23,28-10,28s-10-14.65-10-28V14.91a.06.06,0,0,1,0-.06.08.08,0,0,1,.07.05l3.62,11.31a1,1,0,0,0,1.26.64A1,1,0,0,0,20,25.6L16.74,15.33a.36.36,0,0,1,.34-.48H29.55a.42.42,0,0,1,.41.5L25.58,38.69a1,1,0,0,0,2,.37L32,15.35a.62.62,0,0,1,.6-.5Z"/></g></g></svg>